<?xml version="1.0" encoding="UTF-8"?>
<svg width="241px" height="66px" viewBox="0 0 241 66" version="1.1" xmlns="http://www.w3.org/2000/svg" xmlns:xlink="http://www.w3.org/1999/xlink">
    <!-- Generator: sketchtool 58 (101010) - https://sketch.com -->
    <title>FB17098E-E9EF-4707-895C-646F9D945300</title>
    <desc>Created with sketchtool.</desc>
    <g id="Page-1" stroke="none" stroke-width="1" fill="none" fill-rule="evenodd">
        <g id="home-expanded" transform="translate(-70.000000, -80.000000)" fill="#702F8A">
            <g id="safe-foof-logo-copy" transform="translate(70.000000, 80.000000)">
                <path d="M176.870221,26.3713468 C176.314064,26.3713468 175.74223,26.4116403 175.171889,26.4750653 L158.792499,26.4750653 L158.792499,23.9119512 C158.792499,22.0174108 159.441225,20.1825644 161.576271,20.1825644 C162.931951,20.1825644 163.728488,20.7086183 164.301068,21.0406666 L164.80273,15.8010198 C163.594114,15.5294118 161.795748,15.2869046 160.196703,15.2869046 C155.203979,15.2869046 152.476942,18.6767815 152.476942,23.5358786 L152.476942,26.4750653 L147.825378,26.4750653 L147.825378,31.2923766 L152.476942,31.2923766 L152.476942,51.2354185 L158.792499,51.2354185 L158.792499,31.2923766 L166.597363,31.2923766 C165.111042,33.3764457 164.218205,36.0582017 164.218205,39.2615346 C164.218205,46.2315632 168.876488,51.7972889 176.870221,51.7972889 C184.930395,51.7972889 189.605102,46.2315632 189.605102,39.2615346 C189.605102,31.2267131 184.080109,26.3713468 176.870221,26.3713468 L176.870221,26.3713468 Z M176.870221,46.892675 C172.083537,46.892675 170.806241,42.5096381 170.806241,38.5011814 C170.806241,34.862828 172.799449,31.2804378 176.870221,31.2804378 C181.030576,31.2804378 183.013332,34.7755254 183.013332,38.5011814 C183.013332,42.5544087 181.733051,46.892675 176.870221,46.892675 L176.870221,46.892675 Z M36.5289886,15.6667081 C37.6666846,14.3892551 39.192571,12.734237 40.2959272,11.562741 C29.5542546,6.24623803 16.2012559,8.29299838 7.56775507,17.4836463 C2.37869633,23.0180326 -0.134089133,30.1149111 0.00551005915,37.1610496 L0.868486884,37.675911 C1.09020325,31.79903 3.36111631,25.9706504 7.69391691,21.3421216 C15.2905018,13.2393981 26.9615915,11.2941176 36.5289886,15.6667081 L36.5289886,15.6667081 Z M11.4048666,47.8694192 C7.74393373,44.694441 2.21595502,41.9186668 2.21595502,41.9186668 C12.1289907,54.4103967 16.3647437,66 16.3647437,66 L23.5358124,63.5562741 C30.4545574,30.4462132 54.1908992,0 54.1908992,0 C19.5337201,32.2459893 15.4756387,51.7450566 15.4756387,51.7450566 C15.4756387,51.7450566 14.0378417,50.1519711 11.4048666,47.8694192 Z M76.5051209,30.8387017 C78.8051482,30.8387017 80.1533628,31.2058202 81.954715,31.8706629 L83.3036762,27.1130456 C81.4105021,26.6772789 79.5568936,26.210919 76.5932102,26.210919 C71.6460238,26.210919 66.6428485,28.5248103 65.6186234,33.7562492 C63.9135723,42.5342619 75.5212078,39.288397 74.6067211,44.0460142 C74.1423859,46.4098993 71.4944803,47.0143017 69.8819977,47.0143017 C67.7148509,47.0143017 65.7641948,46.4098993 63.9785195,45.4145007 L62.6034302,50.6131078 C64.7922261,51.2190026 67.1527215,51.6465614 69.5475568,51.6465614 C74.6910779,51.6465614 80.160828,49.38341 81.2492538,43.7214277 C82.9617701,34.9501306 71.5079177,37.3826638 72.2626492,33.5241885 C72.6665163,31.4460888 74.8030558,30.8387017 76.5051209,30.8387017 L76.5051209,30.8387017 Z M47.0549169,16.268872 C46.6473172,15.8980226 46.24345,15.5413506 45.8373432,15.1936326 C45.0646953,16.4658625 43.8441355,18.5156075 42.9968356,19.9467728 C43.1058275,20.0489989 43.218552,20.1489864 43.3223182,20.2497202 C53.4563238,29.8104713 53.9549989,45.7980351 44.4144766,55.964681 C40.2354591,60.4208432 34.8500656,63.0070887 29.2422093,63.7308792 L29.13695,64.6434523 C36.1497565,64.3345355 43.0737271,61.3849024 48.2575603,55.8535008 C58.834252,44.575799 58.2982508,26.8630767 47.0549169,16.268872 L47.0549169,16.268872 Z M203.364207,26.3713468 C196.213294,26.3713468 190.698007,31.2267131 190.698007,39.2615346 C190.698007,46.2315632 195.357036,51.7972889 203.364207,51.7972889 C211.403478,51.7972889 216.07072,46.2315632 216.07072,39.2615346 C216.07072,31.2267131 210.571109,26.3713468 203.364207,26.3713468 L203.364207,26.3713468 Z M203.364207,46.892675 C198.557366,46.892675 197.289776,42.5096381 197.289776,38.5011814 C197.289776,34.862828 199.264321,31.2804378 203.364207,31.2804378 C207.500673,31.2804378 209.483429,34.7755254 209.483429,38.5011814 C209.483429,42.5544087 208.216585,46.892675 203.364207,46.892675 L203.364207,46.892675 Z M136.086355,26.210919 C128.548745,26.210919 123.701592,32.0206442 122.352631,39.0429051 C120.787926,47.0143017 124.56009,51.6502923 132.563528,51.6502923 C135.95646,51.6502923 138.726795,50.9809725 141.267948,49.7132197 L142.272017,44.5675911 C139.65248,45.8845915 136.806746,47.0143017 133.737804,47.0143017 C129.839477,47.0143017 127.531985,44.800398 128.014237,40.8874518 L144.778831,40.8874518 C146.42416,32.3959707 145.078185,26.210919 136.086355,26.210919 L136.086355,26.210919 Z M139.583053,36.538739 L128.855564,36.538739 C129.766319,33.2943664 132.034246,30.8387017 135.552593,30.8387017 C139.085125,30.8387017 139.998118,33.4801642 139.583053,36.538739 L139.583053,36.538739 Z M125.79782,26.3556772 L120.299702,26.3556772 L120.803602,23.7642084 C121.164918,21.8599677 122.180931,20.0169133 124.296568,20.0169133 C125.661206,20.0169133 126.365175,20.5347594 126.86161,20.8824773 L128.400934,15.6428305 C127.220686,15.3548066 125.473083,15.1219998 123.880757,15.1219998 C118.897738,15.1219998 115.507791,18.5103843 114.562697,23.3784355 L113.986384,26.3556772 L99.934643,26.3556772 C99.1560229,26.2668822 98.3102161,26.210919 97.3927433,26.210919 C94.7045257,26.210919 91.2712814,26.9309787 88.6047129,28.0472578 L87.7462152,33.4801642 C90.1798695,31.8706629 93.0636753,30.8387017 95.7317369,30.8387017 C99.4576169,30.8387017 100.942445,32.1661485 100.18622,36.0768561 L96.7066917,36.0768561 C94.0587861,36.0768561 90.9054867,36.3081706 88.2769907,37.493844 C85.6455086,38.6795175 83.5037435,40.794926 82.7938032,44.4310409 C81.9009656,49.0513618 85.5820544,51.6465614 89.8835012,51.6465614 C92.7523766,51.6465614 96.1893535,50.13854 98.1758425,47.4418605 L98.2594527,47.4418605 C98.1638982,48.2014675 97.8496134,49.8072379 97.8473738,51.0854371 L103.398495,51.0854371 C103.617225,49.1931352 103.855365,47.5023007 104.165917,45.6473075 C104.45706,43.8602164 104.775824,42.0208929 105.254343,39.560005 L105.85977,36.445467 C106.281554,34.2539485 106.344262,32.4407412 106.020272,30.9842059 L113.083842,30.9842059 L109.208658,51.0854371 L115.513017,51.0854371 L119.401638,30.9842059 L124.904982,30.9842059 L125.79782,26.3556772 Z M97.1710269,44.8526303 C95.9280716,46.1770924 94.2588534,47.0143017 92.3193951,47.0143017 C90.0589333,47.0143017 88.4949745,46.1218754 88.8995882,44.0460142 C89.6311775,40.3203582 93.9102287,39.8502674 96.7246081,39.8502674 L99.4576169,39.8502674 C99.0873431,41.7365999 98.4647457,43.4886208 97.1710269,44.8526303 L97.1710269,44.8526303 Z M234.706092,15.8413133 L234.706092,29.7627161 L234.607551,29.7627161 C232.715124,27.4570327 230.504679,26.3713468 227.354366,26.3713468 C219.925001,26.3713468 217.185274,32.3161298 217.185274,39.0190275 C217.185274,45.670439 219.925001,51.7972889 227.354366,51.7972889 C230.323275,51.7972889 232.905486,50.8638229 234.782237,48.5021763 L234.889736,48.5021763 L234.889736,51.2354185 L241,51.2354185 L241,15.8413133 L234.706092,15.8413133 Z M229.084798,46.892675 C224.951319,46.892675 223.765099,42.3730879 223.765099,39.0190275 C223.765099,35.758239 224.900555,31.2804378 229.006414,31.2804378 C233.0421,31.2804378 234.650103,35.6201965 234.650103,39.0190275 C234.650103,42.4648676 233.282479,46.892675 229.084798,46.892675 L229.084798,46.892675 Z" id="Fill-1"></path>
            </g>
        </g>
    </g>
</svg>